# Blender 3.1.0
# www.blender.org
mtllib TrackOneFinishLine.mtl
o Cube.002
v -10.641790 10.708838 1.086394
v -10.641790 12.881628 1.086394
v -10.641790 12.881628 -1.086396
v -10.641790 10.708838 -1.086397
v 8.747114 10.708838 -1.086397
v 8.747114 12.881628 -1.086396
v 10.473211 12.881628 -1.086396
v 10.473211 10.708838 -1.086397
v 10.473211 12.881628 1.086394
v 10.473211 10.708838 1.086394
v -8.578537 10.708838 1.086394
v -8.578537 12.881628 1.086394
v -8.578537 10.708838 -1.086397
v -8.578537 -0.451188 1.086392
v -8.578537 -0.451188 -1.086398
v -8.578537 12.881628 -1.086396
v 8.747114 12.881628 1.086394
v -10.641790 -0.451188 -1.086398
v 8.747114 10.708838 1.086394
v 8.747114 -0.451188 -1.086398
v 10.473211 -0.451188 -1.086398
v 10.473211 -0.451188 1.086392
v 8.747114 -0.451188 1.086392
v -10.641790 -0.451188 1.086392
vn -1.0000 -0.0000 -0.0000
vn -0.0000 -0.0000 -1.0000
vn 1.0000 -0.0000 -0.0000
vn -0.0000 -0.0000 1.0000
vn -0.0000 1.0000 -0.0000
vn -0.0000 -1.0000 -0.0000
vt 0.375000 0.000000
vt 0.375000 1.000000
vt 0.625000 0.000000
vt 0.625000 1.000000
vt 0.875000 0.750000
vt 0.875000 0.500000
vt 0.625000 0.250000
vt 0.375000 0.250000
vt 0.354563 0.500000
vt 0.375000 0.479563
vt 0.645437 0.500000
vt 0.625000 0.479563
vt 0.625000 0.500000
vt 0.375000 0.500000
vt 0.625000 0.750000
vt 0.375000 0.750000
vt 0.271230 0.750000
vt 0.375000 0.853770
vt 0.728770 0.750000
vt 0.625000 0.853770
vt 0.271230 0.500000
vt 0.375000 0.396230
vt 0.271230 0.750000
vt 0.375000 0.853770
vt 0.375000 0.396230
vt 0.271230 0.500000
vt 0.728770 0.500000
vt 0.625000 0.396230
vt 0.645437 0.750000
vt 0.625000 0.770437
vt 0.125000 0.500000
vt 0.375000 0.250000
vt 0.354563 0.750000
vt 0.375000 0.770437
vt 0.354563 0.500000
vt 0.375000 0.479563
vt 0.375000 0.500000
vt 0.375000 0.750000
vt 0.354563 0.750000
vt 0.375000 0.770437
vt 0.125000 0.750000
vt 0.375000 0.000000
vt 0.375000 1.000000
s 1
usemtl Default_OBJ
f 1/1/1 2/3/1 3/7/1 4/8/1
f 5/10/2 6/12/2 7/13/2 8/14/2
f 8/14/3 7/13/3 9/15/3 10/16/3
f 11/18/4 12/20/4 2/4/4 1/2/4
f 13/21/3 11/17/3 14/23/3 15/26/3
f 16/27/5 3/6/5 2/5/5 12/19/5
f 7/13/5 6/11/5 17/29/5 9/15/5
f 6/11/5 16/27/5 12/19/5 17/29/5
f 4/8/2 13/22/2 15/25/2 18/32/2
f 13/21/6 5/9/6 19/33/6 11/17/6
f 10/16/4 9/15/4 17/30/4 19/34/4
f 19/34/4 17/30/4 12/20/4 11/18/4
f 4/8/2 3/7/2 16/28/2 13/22/2
f 13/22/2 16/28/2 6/12/2 5/10/2
f 20/35/6 21/37/6 22/38/6 23/39/6
f 18/31/6 15/26/6 14/23/6 24/41/6
f 1/1/1 4/8/1 18/32/1 24/42/1
f 8/14/3 10/16/3 22/38/3 21/37/3
f 11/18/4 1/2/4 24/43/4 14/24/4
f 19/33/1 5/9/1 20/35/1 23/39/1
f 5/10/2 8/14/2 21/37/2 20/36/2
f 10/16/4 19/34/4 23/40/4 22/38/4
