# Blender 3.1.0
# www.blender.org
mtllib TrackOneInner.mtl
o Cube.001
v 7.388679 -1.000000 1.000000
v 7.388679 1.000000 1.000000
v 7.388679 -1.000000 -146.340118
v 7.388679 1.000000 -146.340118
v 8.416945 -1.000000 1.000000
v 8.416945 1.000000 1.000000
v 8.416945 -1.000000 -146.340118
v 8.416945 1.000000 -146.340118
v 10.412251 -1.000000 -160.785355
v 10.412251 1.000000 -160.785355
v 11.083397 -1.000000 -160.006332
v 11.083397 1.000000 -160.006332
v 17.931070 -1.000000 -164.743958
v 17.931070 1.000000 -164.743958
v 17.925121 -1.000000 -163.715729
v 17.925121 1.000000 -163.715729
v 35.454998 -1.000000 -157.902374
v 35.454998 1.000000 -157.902374
v 35.449047 -1.000000 -156.874146
v 35.449047 1.000000 -156.874146
v 64.044945 -1.000000 -137.954773
v 64.044945 1.000000 -137.954773
v 64.038994 -1.000000 -136.926544
v 64.038994 1.000000 -136.926544
v 84.796211 -1.000000 -119.666702
v 84.796211 1.000000 -119.666702
v 84.060844 -1.000000 -118.948013
v 84.060844 1.000000 -118.948013
v 96.769653 -1.000000 -91.964409
v 96.769653 1.000000 -91.964409
v 96.034286 -1.000000 -91.245720
v 96.034286 1.000000 -91.245720
v 96.542969 -1.000000 -62.424610
v 96.542969 1.000000 -62.424610
v 95.586746 -1.000000 -62.802628
v 95.586746 1.000000 -62.802628
v 93.777756 -1.000000 -41.707920
v 93.777756 1.000000 -41.707920
v 92.850502 -1.000000 -41.263554
v 92.850502 1.000000 -41.263554
v 104.545044 -1.000000 -17.575809
v 104.545044 1.000000 -17.575809
v 103.683372 -1.000000 -17.014761
v 103.683372 1.000000 -17.014761
v 133.144745 -1.000000 24.962833
v 133.144745 1.000000 24.962833
v 132.283081 -1.000000 25.523882
v 132.283081 1.000000 25.523882
v 136.574707 -1.000000 36.036407
v 136.574707 1.000000 36.036407
v 135.624634 -1.000000 35.643162
v 135.624634 1.000000 35.643162
v 129.678360 -1.000000 46.537857
v 129.678360 1.000000 46.537857
v 128.860352 -1.000000 45.914856
v 128.860352 1.000000 45.914856
v 96.571480 -1.000000 78.868034
v 96.571480 1.000000 78.868034
v 95.753479 -1.000000 78.245033
v 95.753479 1.000000 78.245033
v 89.579041 -1.000000 98.117096
v 89.579041 1.000000 98.117096
v 88.761032 -1.000000 97.494095
v 88.761032 1.000000 97.494095
v 90.550247 -1.000000 87.469643
v 90.550247 1.000000 87.469643
v 91.368248 -1.000000 88.092644
v 91.368248 1.000000 88.092644
v 95.420677 -1.000000 154.190369
v 95.420677 1.000000 154.190369
v 94.413910 -1.000000 154.399414
v 94.413910 1.000000 154.399414
v 101.720940 -1.000000 173.232880
v 101.720940 1.000000 173.232880
v 100.755264 -1.000000 173.586090
v 100.755264 1.000000 173.586090
v 127.214867 -1.000000 202.252426
v 127.214867 1.000000 202.252426
v 126.249199 -1.000000 202.605637
v 126.249199 1.000000 202.605637
v 129.607651 -1.000000 207.143433
v 129.607651 1.000000 207.143433
v 128.641983 -1.000000 207.496643
v 128.641983 1.000000 207.496643
v 125.052979 -1.000000 220.108032
v 125.052979 1.000000 220.108032
v 124.286186 -1.000000 219.422974
v 124.286186 1.000000 219.422974
v 128.097076 1.000000 214.077316
v 128.097076 -1.000000 214.077316
v 127.230850 -1.000000 213.911392
v 127.230850 1.000000 213.911392
v 56.085922 -1.000000 258.173340
v 56.085922 1.000000 258.173340
v 55.319130 -1.000000 257.488281
v 55.319130 1.000000 257.488281
v 45.916451 -1.000000 259.927246
v 45.916451 1.000000 259.927246
v 46.005161 -1.000000 258.902832
v 46.005161 1.000000 258.902832
v 50.709610 -1.000000 259.031738
v 50.709610 1.000000 259.031738
v 51.476398 -1.000000 259.716797
v 51.476398 1.000000 259.716797
v 26.046268 -1.000000 253.125275
v 26.046268 1.000000 253.125275
v 26.693325 -1.000000 252.326141
v 26.693325 1.000000 252.326141
v 35.646778 -1.000000 257.751068
v 35.735489 -1.000000 256.726654
v 35.735489 1.000000 256.726654
v 35.646778 1.000000 257.751068
v 19.185646 -1.000000 246.163788
v 19.185646 1.000000 246.163788
v 20.125055 -1.000000 245.745697
v 20.125055 1.000000 245.745697
v 15.261266 -1.000000 237.346069
v 15.261266 1.000000 237.346069
v 16.200678 -1.000000 236.927979
v 16.200678 1.000000 236.927979
v 13.464691 -1.000000 231.519531
v 13.464691 1.000000 231.519531
v 14.476676 -1.000000 231.337372
v 14.476676 1.000000 231.337372
v -10.812002 -1.000000 52.028137
v -10.812002 1.000000 52.028137
v -9.800019 -1.000000 51.845978
v -9.800019 1.000000 51.845978
v 6.072818 -1.000000 11.773158
v 6.072818 1.000000 11.773158
v 6.931143 -1.000000 12.339381
v 6.931143 1.000000 12.339381
v -0.298610 -1.000000 13.957755
v -0.298610 1.000000 13.957755
v -0.087968 -1.000000 14.964215
v -0.087968 1.000000 14.964215
v -35.277119 -1.000000 21.278389
v -35.277119 1.000000 21.278389
v -35.066475 -1.000000 22.284847
v -35.066475 1.000000 22.284847
v 3.733835 1.000000 13.580097
v 4.268318 1.000000 14.366439
v 4.268318 -1.000000 14.366439
v 3.733835 -1.000000 13.580097
v 7.648953 1.000000 9.410976
v 8.560081 1.000000 9.801267
v 8.560081 -1.000000 9.801267
v 7.648953 -1.000000 9.410976
v 4.925197 -1.000000 12.013346
v 4.925197 1.000000 12.013346
v 5.783522 -1.000000 12.579569
v 5.783522 1.000000 12.579569
v -36.424740 -1.000000 21.518578
v -36.424740 1.000000 21.518578
v -36.214096 -1.000000 22.525036
v -36.214096 1.000000 22.525036
v -31.128721 -1.000000 35.375916
v -31.128721 1.000000 35.375916
v -32.276340 -1.000000 35.616104
v -32.276340 1.000000 35.616104
v -22.294857 -1.000000 38.264626
v -22.294857 1.000000 38.264626
v -23.002775 -1.000000 39.199280
v -23.002775 1.000000 39.199280
v -27.537968 -1.000000 37.323174
v -28.685589 -1.000000 37.563362
v -27.537968 1.000000 37.323174
v -28.685589 1.000000 37.563362
v -13.723467 -1.000000 42.376263
v -13.723467 1.000000 42.376263
v -14.431384 -1.000000 43.310917
v -14.431384 1.000000 43.310917
vn -1.0000 -0.0000 -0.0000
vn -0.0000 1.0000 -0.0000
vn 1.0000 -0.0000 -0.0000
vn -0.0000 -1.0000 -0.0000
vn -0.9788 -0.0000 -0.2049
vn 0.9815 -0.0000 0.1915
vn -0.3637 -0.0000 0.9315
vn -0.4659 -0.0000 -0.8849
vn 0.4766 -0.0000 0.8791
vn 0.3637 -0.0000 -0.9315
vn 0.5722 -0.0000 -0.8201
vn -0.5722 -0.0000 0.8201
vn -0.9179 -0.0000 0.3967
vn 0.6612 -0.0000 -0.7502
vn -0.6681 -0.0000 0.7441
vn 0.9179 -0.0000 -0.3967
vn 0.9912 -0.0000 0.1323
vn 1.0000 -0.0000 0.0077
vn -0.9999 -0.0000 -0.0157
vn -0.9130 -0.0000 0.4079
vn -0.9920 -0.0000 -0.1260
vn 0.9132 -0.0000 -0.4075
vn -0.9496 -0.0000 0.3136
vn 0.8299 -0.0000 -0.5579
vn -0.8299 -0.0000 0.5579
vn 0.9552 -0.0000 -0.2959
vn 0.8359 -0.0000 0.5489
vn -0.8352 -0.0000 -0.5500
vn -0.9844 -0.0000 -0.1757
vn 0.6987 -0.0000 0.7154
vn -0.6987 -0.0000 -0.7154
vn 0.9844 -0.0000 0.1757
vn 0.8710 -0.0000 0.4913
vn -0.8710 -0.0000 -0.4913
vn -0.9495 -0.0000 0.3138
vn 0.9946 -0.0000 -0.1036
vn -0.9951 -0.0000 0.0989
vn -0.7513 -0.0000 0.6600
vn 0.9494 -0.0000 -0.3141
vn 0.7513 -0.0000 -0.6600
vn 0.8927 -0.0000 0.4506
vn 0.8983 -0.0000 -0.4395
vn -0.8983 -0.0000 0.4395
vn -0.4832 -0.0000 -0.8755
vn -0.8820 -0.0000 -0.4712
vn -0.9766 -0.0000 -0.2148
vn 0.9771 -0.0000 0.2129
vn 0.0274 -0.0000 -0.9996
vn 0.4832 -0.0000 0.8755
vn 0.0378 -0.0000 0.9993
vn 0.3175 -0.0000 0.9483
vn -0.3175 -0.0000 -0.9483
vn 0.7078 -0.0000 -0.7065
vn -0.4341 -0.0000 0.9009
vn 0.4376 -0.0000 -0.8992
vn 0.2073 -0.0000 -0.9783
vn -0.2073 -0.0000 0.9783
vn -0.7122 -0.0000 0.7019
vn 0.9556 -0.0000 -0.2947
vn -0.9136 -0.0000 0.4066
vn 0.9136 -0.0000 -0.4066
vn -0.9556 -0.0000 0.2947
vn -0.9910 -0.0000 0.1340
vn 0.9910 -0.0000 -0.1340
vn 0.8416 -0.0000 0.5401
vn -0.8318 -0.0000 -0.5550
vn 0.1359 -0.0000 0.9907
vn -0.0932 -0.0000 -0.9956
vn -0.2049 -0.0000 -0.9788
vn 0.2049 -0.0000 0.9788
vn -0.6114 -0.0000 -0.7914
vn 0.6057 -0.0000 0.7957
vn -0.9995 -0.0000 0.0309
vn 0.9999 -0.0000 -0.0163
vn -0.9788 -0.0000 0.2049
vn -0.9576 -0.0000 0.2880
vn 0.9576 -0.0000 -0.2880
vn 0.1767 -0.0000 -0.9843
vn -0.2766 -0.0000 0.9610
vn -0.4767 -0.0000 0.8791
vn 0.4767 -0.0000 -0.8791
vn 0.9238 -0.0000 -0.3828
vn -0.4325 -0.0000 0.9016
vn 0.4325 -0.0000 -0.9016
vn -0.9236 -0.0000 0.3835
vt 0.125000 0.750000
vt 0.375000 0.000000
vt 0.625000 0.000000
vt 0.875000 0.750000
vt 0.375000 0.250000
vt 0.125000 0.500000
vt 0.875000 0.500000
vt 0.625000 0.250000
vt 0.375000 0.750000
vt 0.625000 0.750000
vt 0.375000 0.500000
vt 0.625000 0.500000
vt 0.375000 0.250000
vt 0.125000 0.500000
vt 0.875000 0.500000
vt 0.625000 0.250000
vt 0.375000 0.500000
vt 0.625000 0.500000
vt 0.125000 0.500000
vt 0.375000 0.250000
vt 0.875000 0.500000
vt 0.625000 0.250000
vt 0.375000 0.500000
vt 0.625000 0.500000
vt 0.375000 0.250000
vt 0.125000 0.500000
vt 0.875000 0.500000
vt 0.625000 0.250000
vt 0.375000 0.500000
vt 0.625000 0.500000
vt 0.375000 0.250000
vt 0.125000 0.500000
vt 0.875000 0.500000
vt 0.625000 0.250000
vt 0.375000 0.500000
vt 0.625000 0.500000
vt 0.125000 0.500000
vt 0.375000 0.250000
vt 0.875000 0.500000
vt 0.625000 0.250000
vt 0.375000 0.500000
vt 0.625000 0.500000
vt 0.375000 0.250000
vt 0.125000 0.500000
vt 0.875000 0.500000
vt 0.625000 0.250000
vt 0.375000 0.500000
vt 0.625000 0.500000
vt 0.375000 0.250000
vt 0.125000 0.500000
vt 0.625000 0.250000
vt 0.875000 0.500000
vt 0.375000 0.500000
vt 0.625000 0.500000
vt 0.125000 0.500000
vt 0.375000 0.250000
vt 0.875000 0.500000
vt 0.625000 0.250000
vt 0.375000 0.500000
vt 0.625000 0.500000
vt 0.375000 0.250000
vt 0.125000 0.500000
vt 0.875000 0.500000
vt 0.625000 0.250000
vt 0.375000 0.500000
vt 0.625000 0.500000
vt 0.125000 0.500000
vt 0.375000 0.250000
vt 0.875000 0.500000
vt 0.625000 0.250000
vt 0.375000 0.500000
vt 0.625000 0.500000
vt 0.125000 0.500000
vt 0.375000 0.250000
vt 0.875000 0.500000
vt 0.625000 0.250000
vt 0.375000 0.500000
vt 0.625000 0.500000
vt 0.375000 0.250000
vt 0.125000 0.500000
vt 0.875000 0.500000
vt 0.625000 0.250000
vt 0.375000 0.500000
vt 0.625000 0.500000
vt 0.375000 0.250000
vt 0.125000 0.500000
vt 0.625000 0.250000
vt 0.875000 0.500000
vt 0.375000 0.500000
vt 0.625000 0.500000
vt 0.375000 0.250000
vt 0.125000 0.500000
vt 0.875000 0.500000
vt 0.625000 0.250000
vt 0.375000 0.500000
vt 0.625000 0.500000
vt 0.375000 0.500000
vt 0.625000 0.500000
vt 0.375000 0.250000
vt 0.125000 0.500000
vt 0.625000 0.250000
vt 0.875000 0.500000
vt 0.125000 0.500000
vt 0.375000 0.250000
vt 0.875000 0.500000
vt 0.625000 0.250000
vt 0.375000 0.500000
vt 0.625000 0.500000
vt 0.125000 0.500000
vt 0.375000 0.250000
vt 0.875000 0.500000
vt 0.625000 0.250000
vt 0.375000 0.500000
vt 0.625000 0.500000
vt 0.375000 0.250000
vt 0.125000 0.500000
vt 0.875000 0.500000
vt 0.625000 0.250000
vt 0.375000 0.500000
vt 0.625000 0.500000
vt 0.125000 0.500000
vt 0.375000 0.250000
vt 0.875000 0.500000
vt 0.625000 0.250000
vt 0.375000 0.500000
vt 0.625000 0.500000
vt 0.125000 0.500000
vt 0.375000 0.250000
vt 0.875000 0.500000
vt 0.625000 0.250000
vt 0.375000 0.500000
vt 0.625000 0.500000
vt 0.875000 0.500000
vt 0.625000 0.250000
vt 0.125000 0.500000
vt 0.375000 0.250000
vt 0.375000 0.500000
vt 0.625000 0.500000
vt 0.375000 0.250000
vt 0.125000 0.500000
vt 0.625000 0.250000
vt 0.875000 0.500000
vt 0.375000 0.500000
vt 0.625000 0.500000
vt 0.375000 0.250000
vt 0.125000 0.500000
vt 0.625000 0.250000
vt 0.875000 0.500000
vt 0.375000 0.500000
vt 0.625000 0.500000
vt 0.375000 0.500000
vt 0.625000 0.500000
vt 0.375000 0.250000
vt 0.125000 0.500000
vt 0.625000 0.250000
vt 0.875000 0.500000
vt 0.125000 0.500000
vt 0.375000 0.250000
vt 0.875000 0.500000
vt 0.625000 0.250000
vt 0.375000 0.500000
vt 0.625000 0.500000
vt 0.375000 0.250000
vt 0.125000 0.500000
vt 0.375000 0.500000
vt 0.625000 0.500000
vt 0.625000 0.250000
vt 0.875000 0.500000
vt 0.375000 0.250000
vt 0.125000 0.500000
vt 0.875000 0.500000
vt 0.625000 0.250000
vt 0.375000 0.500000
vt 0.625000 0.500000
vt 0.125000 0.500000
vt 0.375000 0.250000
vt 0.875000 0.500000
vt 0.625000 0.250000
vt 0.375000 0.500000
vt 0.625000 0.500000
vt 0.375000 0.250000
vt 0.125000 0.500000
vt 0.875000 0.500000
vt 0.625000 0.250000
vt 0.375000 0.500000
vt 0.625000 0.500000
vt 0.125000 0.500000
vt 0.375000 0.250000
vt 0.625000 0.250000
vt 0.875000 0.500000
vt 0.375000 0.500000
vt 0.625000 0.500000
vt 0.125000 0.750000
vt 0.375000 0.000000
vt 0.875000 0.750000
vt 0.625000 0.000000
vt 0.375000 0.750000
vt 0.625000 0.750000
vt 0.125000 0.750000
vt 0.375000 0.000000
vt 0.625000 0.000000
vt 0.875000 0.750000
vt 0.375000 0.750000
vt 0.625000 0.750000
vt 0.125000 0.750000
vt 0.375000 0.000000
vt 0.625000 0.000000
vt 0.875000 0.750000
vt 0.375000 0.750000
vt 0.625000 0.750000
vt 0.625000 0.000000
vt 0.875000 0.750000
vt 0.625000 0.750000
vt 0.375000 0.750000
vt 0.375000 0.000000
vt 0.125000 0.750000
vt 0.625000 0.000000
vt 0.875000 0.750000
vt 0.625000 0.750000
vt 0.375000 0.750000
vt 0.125000 0.750000
vt 0.375000 0.000000
vt 0.125000 0.750000
vt 0.375000 0.000000
vt 0.875000 0.750000
vt 0.625000 0.000000
vt 0.375000 0.750000
vt 0.625000 0.750000
vt 0.125000 0.750000
vt 0.375000 1.000000
vt 0.375000 0.000000
vt 0.625000 1.000000
vt 0.625000 0.000000
vt 0.875000 0.750000
vt 0.375000 0.750000
vt 0.625000 0.750000
vt 0.375000 0.750000
vt 0.625000 0.750000
vt 0.375000 0.750000
vt 0.625000 0.750000
vt 0.375000 0.750000
vt 0.625000 0.750000
vt 0.375000 0.750000
vt 0.625000 0.750000
vt 0.375000 0.750000
vt 0.375000 0.750000
vt 0.625000 0.750000
vt 0.625000 0.750000
vt 0.375000 0.750000
vt 0.625000 0.750000
vt 0.375000 0.750000
vt 0.625000 0.750000
s 0
f 1/2/1 2/3/1 4/8/1 3/5/1
f 4/7/2 8/12/2 12/18/2 10/15/2
f 7/11/3 8/12/3 6/10/3 5/9/3
f 146/219/2 145/218/2 130/195/2 132/198/2
f 3/6/4 7/11/4 5/9/4 1/1/4
f 8/12/2 4/7/2 2/4/2 6/10/2
f 10/15/2 12/18/2 16/24/2 14/21/2
f 3/5/5 4/8/5 10/16/5 9/13/5
f 8/12/6 7/11/6 11/17/6 12/18/6
f 7/11/4 3/6/4 9/14/4 11/17/4
f 16/24/7 15/23/7 19/29/7 20/30/7
f 9/13/8 10/16/8 14/22/8 13/20/8
f 12/18/9 11/17/9 15/23/9 16/24/9
f 11/17/4 9/14/4 13/19/4 15/23/4
f 18/27/2 20/30/2 24/36/2 22/33/2
f 15/23/4 13/19/4 17/26/4 19/29/4
f 14/21/2 16/24/2 20/30/2 18/27/2
f 13/20/10 14/22/10 18/28/10 17/25/10
f 22/33/2 24/36/2 28/42/2 26/39/2
f 17/25/11 18/28/11 22/34/11 21/31/11
f 20/30/12 19/29/12 23/35/12 24/36/12
f 19/29/4 17/26/4 21/32/4 23/35/4
f 28/42/13 27/41/13 31/47/13 32/48/13
f 21/31/14 22/34/14 26/40/14 25/38/14
f 24/36/15 23/35/15 27/41/15 28/42/15
f 23/35/4 21/32/4 25/37/4 27/41/4
f 30/45/2 32/48/2 36/54/2 34/52/2
f 27/41/4 25/37/4 29/44/4 31/47/4
f 26/39/2 28/42/2 32/48/2 30/45/2
f 25/38/16 26/40/16 30/46/16 29/43/16
f 33/49/17 34/51/17 38/58/17 37/56/17
f 29/43/18 30/46/18 34/51/18 33/49/18
f 32/48/19 31/47/19 35/53/19 36/54/19
f 31/47/4 29/44/4 33/50/4 35/53/4
f 40/60/20 39/59/20 43/65/20 44/66/20
f 36/54/21 35/53/21 39/59/21 40/60/21
f 35/53/4 33/50/4 37/55/4 39/59/4
f 34/52/2 36/54/2 40/60/2 38/57/2
f 42/63/2 44/66/2 48/72/2 46/69/2
f 39/59/4 37/55/4 41/62/4 43/65/4
f 38/57/2 40/60/2 44/66/2 42/63/2
f 37/56/22 38/58/22 42/64/22 41/61/22
f 48/72/23 47/71/23 51/77/23 52/78/23
f 41/61/24 42/64/24 46/70/24 45/68/24
f 44/66/25 43/65/25 47/71/25 48/72/25
f 43/65/4 41/62/4 45/67/4 47/71/4
f 51/77/4 49/73/4 53/80/4 55/83/4
f 47/71/4 45/67/4 49/73/4 51/77/4
f 46/69/2 48/72/2 52/78/2 50/75/2
f 45/68/26 46/70/26 50/76/26 49/74/26
f 54/81/2 56/84/2 60/90/2 58/88/2
f 50/75/2 52/78/2 56/84/2 54/81/2
f 49/74/27 50/76/27 54/82/27 53/79/27
f 52/78/28 51/77/28 55/83/28 56/84/28
f 66/98/29 65/97/29 63/95/29 64/96/29
f 53/79/30 54/82/30 58/87/30 57/85/30
f 56/84/31 55/83/31 59/89/31 60/90/31
f 55/83/4 53/80/4 57/86/4 59/89/4
f 62/93/2 64/96/2 72/108/2 70/105/2
f 65/97/4 67/100/4 61/92/4 63/95/4
f 68/102/2 66/98/2 64/96/2 62/93/2
f 67/99/32 68/101/32 62/94/32 61/91/32
f 57/85/33 58/87/33 68/101/33 67/99/33
f 58/88/2 60/90/2 66/98/2 68/102/2
f 59/89/4 57/86/4 67/100/4 65/97/4
f 60/90/34 59/89/34 65/97/34 66/98/34
f 72/108/35 71/107/35 75/113/35 76/114/35
f 61/91/36 62/94/36 70/106/36 69/104/36
f 64/96/37 63/95/37 71/107/37 72/108/37
f 63/95/4 61/92/4 69/103/4 71/107/4
f 76/114/38 75/113/38 79/119/38 80/120/38
f 71/107/4 69/103/4 73/109/4 75/113/4
f 70/105/2 72/108/2 76/114/2 74/111/2
f 69/104/39 70/106/39 74/112/39 73/110/39
f 78/117/2 80/120/2 84/126/2 82/123/2
f 75/113/4 73/109/4 77/116/4 79/119/4
f 74/111/2 76/114/2 80/120/2 78/117/2
f 73/110/40 74/112/40 78/118/40 77/115/40
f 90/136/41 89/134/41 86/130/41 85/128/41
f 77/115/42 78/118/42 82/124/42 81/122/42
f 80/120/43 79/119/43 83/125/43 84/126/43
f 79/119/4 77/116/4 81/121/4 83/125/4
f 88/132/44 87/131/44 95/143/44 96/144/44
f 92/138/45 91/137/45 87/131/45 88/132/45
f 91/137/4 90/135/4 85/127/4 87/131/4
f 89/133/2 92/138/2 88/132/2 86/129/2
f 82/123/2 84/126/2 92/138/2 89/133/2
f 83/125/4 81/121/4 90/135/4 91/137/4
f 84/126/46 83/125/46 91/137/46 92/138/46
f 81/122/47 82/124/47 89/134/47 90/136/47
f 102/152/48 101/151/48 99/149/48 100/150/48
f 87/131/4 85/127/4 93/140/4 95/143/4
f 86/129/2 88/132/2 96/144/2 94/142/2
f 85/128/49 86/130/49 94/141/49 93/139/49
f 110/165/4 109/164/4 105/157/4 107/161/4
f 101/151/4 103/154/4 97/146/4 99/149/4
f 104/156/2 102/152/2 100/150/2 98/148/2
f 103/153/50 104/155/50 98/147/50 97/145/50
f 93/139/51 94/141/51 104/155/51 103/153/51
f 94/142/2 96/144/2 102/152/2 104/156/2
f 95/143/4 93/140/4 103/154/4 101/151/4
f 96/144/52 95/143/52 101/151/52 102/152/52
f 108/162/53 107/161/53 115/173/53 116/174/53
f 112/168/2 111/166/2 108/162/2 106/159/2
f 109/163/54 112/167/54 106/160/54 105/158/54
f 111/166/55 110/165/55 107/161/55 108/162/55
f 100/150/56 99/149/56 110/165/56 111/166/56
f 97/145/57 98/147/57 112/167/57 109/163/57
f 98/148/2 100/150/2 111/166/2 112/168/2
f 99/149/4 97/146/4 109/164/4 110/165/4
f 114/171/2 116/174/2 120/180/2 118/177/2
f 107/161/4 105/157/4 113/170/4 115/173/4
f 106/159/2 108/162/2 116/174/2 114/171/2
f 105/158/58 106/160/58 114/172/58 113/169/58
f 120/180/59 119/179/59 123/185/59 124/186/59
f 113/169/60 114/172/60 118/178/60 117/176/60
f 116/174/61 115/173/61 119/179/61 120/180/61
f 115/173/4 113/170/4 117/175/4 119/179/4
f 122/183/2 124/186/2 128/192/2 126/190/2
f 119/179/4 117/175/4 121/182/4 123/185/4
f 118/177/2 120/180/2 124/186/2 122/183/2
f 117/176/62 118/178/62 122/184/62 121/181/62
f 128/192/2 170/250/2 172/252/2 126/190/2
f 121/181/63 122/184/63 126/189/63 125/188/63
f 124/186/64 123/185/64 127/191/64 128/192/64
f 123/185/4 121/182/4 125/187/4 127/191/4
f 142/213/2 141/212/2 134/202/2 136/204/2
f 147/220/65 146/219/65 132/198/65 131/197/65
f 145/217/66 148/222/66 129/194/66 130/196/66
f 148/221/4 147/220/4 131/197/4 129/193/4
f 133/199/4 135/203/4 139/209/4 137/205/4
f 143/214/67 142/213/67 136/204/67 135/203/67
f 144/216/4 143/214/4 135/203/4 133/199/4
f 141/211/68 144/215/68 133/200/68 134/201/68
f 137/205/4 139/209/4 155/235/4 153/229/4
f 134/201/69 133/200/69 137/206/69 138/207/69
f 136/204/2 134/202/2 138/208/2 140/210/2
f 135/203/70 136/204/70 140/210/70 139/209/70
f 130/196/71 129/194/71 144/215/71 141/211/71
f 129/193/4 131/197/4 143/214/4 144/216/4
f 131/197/72 132/198/72 142/213/72 143/214/72
f 132/198/2 130/195/2 141/212/2 142/213/2
f 1/1/4 5/9/4 147/220/4 148/221/4
f 2/3/73 1/2/73 148/222/73 145/217/73
f 5/9/74 6/10/74 146/219/74 147/220/74
f 6/10/2 2/4/2 145/218/2 146/219/2
f 155/235/75 156/236/75 154/232/75 153/230/75
f 138/207/69 137/206/69 153/231/69 154/233/69
f 130/195/4 132/198/4 152/228/4 150/225/4
f 132/198/69 131/197/69 151/227/69 152/228/69
f 140/210/2 138/208/2 154/234/2 156/236/2
f 156/236/76 155/235/76 159/239/76 160/240/76
f 131/197/2 129/193/2 149/223/2 151/227/2
f 129/194/70 130/196/70 150/226/70 149/224/70
f 166/246/4 165/245/4 161/241/4 163/243/4
f 140/210/2 156/236/2 160/240/2 158/238/2
f 139/209/77 140/210/77 158/238/77 157/237/77
f 155/235/4 139/209/4 157/237/4 159/239/4
f 162/242/2 164/244/2 172/252/2 170/250/2
f 165/245/78 167/247/78 162/242/78 161/241/78
f 167/247/2 168/248/2 164/244/2 162/242/2
f 168/248/79 166/246/79 163/243/79 164/244/79
f 160/240/80 159/239/80 166/246/80 168/248/80
f 158/238/2 160/240/2 168/248/2 167/247/2
f 157/237/81 158/238/81 167/247/81 165/245/81
f 159/239/4 157/237/4 165/245/4 166/246/4
f 127/191/82 169/249/82 170/250/82 128/192/82
f 164/244/83 163/243/83 171/251/83 172/252/83
f 163/243/4 161/241/4 169/249/4 171/251/4
f 161/241/84 162/242/84 170/250/84 169/249/84
f 125/188/4 171/251/4 169/249/4 127/191/4
f 125/188/85 126/190/85 172/252/85 171/251/85
