# Blender 3.1.0
# www.blender.org
mtllib DoubleRampR45.mtl
o Cube.003
v 13.375627 11.399751 2.127210
v 13.375627 15.376668 2.127211
v 15.985819 11.399750 4.737404
v 46.663204 -1.940839 57.911625
v 57.911625 -1.940838 46.663204
v 2.127208 -0.531000 13.375627
v 13.375627 -0.530998 2.127208
v 15.985819 -0.530999 4.737402
v 4.737402 -0.531001 15.985819
v 2.127208 15.376666 13.375629
v 2.127208 11.399749 13.375628
v -5.624209 15.376667 5.624211
v -5.624209 11.399750 5.624211
v 57.911625 -2.098006 46.663204
v 46.663204 -2.098007 57.911625
v 4.737402 7.422832 15.985820
v 46.663204 -2.569509 57.911625
v 46.663204 -2.255175 57.911625
v 57.911625 -2.569507 46.663204
v 4.737402 11.399748 15.985821
v 15.985819 7.422834 4.737403
v 57.911625 -2.255173 46.663204
v 13.375627 7.422834 2.127209
v 2.127208 7.422832 13.375628
v 5.624209 15.376669 -5.624207
v 5.624209 11.399752 -5.624207
v -2.127208 11.399753 -13.375625
v -4.737402 11.399754 -15.985817
v -2.127208 15.376670 -13.375624
v -46.663204 -1.940821 -57.911625
v -57.911625 -1.940822 -46.663204
v -13.375627 -0.530998 -2.127208
v -15.985819 -0.530997 -4.737402
v -4.737402 -0.530995 -15.985819
v -2.127208 -0.530996 -13.375627
v -13.375627 15.376668 -2.127205
v -13.375627 11.399751 -2.127206
v -46.663204 -2.097988 -57.911625
v -57.911625 -2.097990 -46.663204
v -15.985819 7.422836 -4.737401
v -57.911625 -2.255157 -46.663204
v -57.911625 -2.569491 -46.663204
v -46.663204 -2.569489 -57.911625
v -15.985819 11.399752 -4.737400
v -46.663204 -2.255156 -57.911625
v -4.737402 7.422837 -15.985818
v -2.127208 7.422837 -13.375626
v -13.375627 7.422835 -2.127207
v 14.358460 15.376667 3.110045
v 17.547913 14.731442 6.299499
v 15.985819 13.075234 4.737404
v 15.100130 15.327553 3.851716
v 15.966702 15.187686 4.718288
v 16.826250 14.978360 5.577835
v 6.299496 14.731441 17.547915
v 3.110043 15.376666 14.358463
v 4.737402 13.075233 15.985821
v 5.577833 14.978358 16.826252
v 4.718286 15.187684 15.966706
v 3.851713 15.327551 15.100134
v -6.299496 14.731446 -17.547911
v -3.110043 15.376670 -14.358458
v -4.737402 13.075238 -15.985817
v -5.577833 14.978364 -16.826248
v -4.718286 15.187690 -15.966701
v -3.851713 15.327557 -15.100128
v -14.358460 15.376669 -3.110040
v -17.547913 14.731444 -6.299494
v -15.985819 13.075236 -4.737400
v -15.100130 15.327555 -3.851711
v -15.966702 15.187688 -4.718284
v -16.826250 14.978362 -5.577830
vn -0.5553 0.4399 0.7058
vn -0.7071 -0.0000 0.7071
vn 0.7071 -0.0000 -0.7071
vn 0.7058 0.4399 -0.5553
vn -0.0000 -1.0000 -0.0000
vn 0.1982 0.9599 0.1982
vn 0.7071 -0.0000 0.7071
vn 0.6455 0.4521 -0.6156
vn -0.0243 -0.9994 -0.0243
vn 0.5553 0.4399 -0.7058
vn -0.0000 1.0000 -0.0000
vn -0.6156 0.4521 0.6455
vn -0.7071 -0.0000 -0.7071
vn -0.1982 0.9599 -0.1982
vn -0.7058 0.4399 0.5553
vn 0.6156 0.4521 -0.6455
vn 0.0243 -0.9994 0.0243
vn -0.6455 0.4521 0.6156
vn 0.5352 0.7122 -0.4543
vn 0.5669 0.7062 -0.4241
vn 0.5971 0.6997 -0.3924
vn -0.3924 0.6997 0.5971
vn -0.4241 0.7062 0.5669
vn -0.4543 0.7122 0.5352
vn 0.3924 0.6997 -0.5971
vn 0.4241 0.7062 -0.5669
vn 0.4543 0.7122 -0.5352
vn -0.5352 0.7122 0.4543
vn -0.5669 0.7062 0.4241
vn -0.5971 0.6997 0.3924
vt 0.562500 0.718511
vt 0.625000 0.718511
vt 0.562500 0.750000
vt 0.625000 0.000000
vt 0.875000 0.750000
vt 0.625000 1.000000
vt 0.625000 0.750000
vt 0.375000 0.031489
vt 0.125000 0.718511
vt 0.375000 0.718511
vt 0.375000 0.750000
vt 0.125000 0.750000
vt 0.375000 0.000000
vt 0.625000 0.031489
vt 0.875000 0.718511
vt 0.562500 0.031489
vt 0.625000 0.125000
vt 0.875000 0.625000
vt 0.562500 0.125000
vt 0.562500 0.750000
vt 0.562500 0.000000
vt 0.562500 1.000000
vt 0.500000 0.000000
vt 0.375000 0.000000
vt 0.125000 0.750000
vt 0.375000 1.000000
vt 0.500000 0.000000
vt 0.500000 1.000000
vt 0.375000 0.750000
vt 0.562500 0.000000
vt 0.500000 0.750000
vt 0.500000 0.750000
vt 0.500000 0.718511
vt 0.500000 0.031489
vt 0.625000 0.625000
vt 0.562500 0.625000
vt 0.562500 0.718511
vt 0.562500 0.750000
vt 0.625000 0.718511
vt 0.625000 0.750000
vt 0.875000 0.750000
vt 0.625000 0.000000
vt 0.625000 1.000000
vt 0.375000 0.031489
vt 0.125000 0.718511
vt 0.125000 0.750000
vt 0.375000 0.000000
vt 0.375000 0.750000
vt 0.375000 0.718511
vt 0.875000 0.718511
vt 0.625000 0.031489
vt 0.562500 0.031489
vt 0.562500 0.750000
vt 0.562500 0.000000
vt 0.562500 1.000000
vt 0.500000 0.000000
vt 0.500000 0.000000
vt 0.500000 1.000000
vt 0.375000 0.000000
vt 0.125000 0.750000
vt 0.375000 1.000000
vt 0.375000 0.750000
vt 0.562500 0.000000
vt 0.500000 0.750000
vt 0.500000 0.750000
vt 0.500000 0.718511
vt 0.500000 0.031489
vt 0.625000 0.730368
vt 0.625000 0.768845
vt 0.625000 0.750000
vt 0.588831 0.750000
vt 0.625000 0.739315
vt 0.625000 0.749769
vt 0.625000 0.750000
vt 0.625000 0.760139
vt 0.625000 0.750000
vt 0.625000 0.000000
vt 0.614860 -0.018845
vt 0.875000 0.750000
vt 0.625000 0.019632
vt 0.875000 0.730368
vt 0.588831 0.000000
vt 0.618740 -0.010139
vt 0.875000 0.750000
vt 0.622030 0.000000
vt 0.875000 0.750000
vt 0.625000 0.010685
vt 0.875000 0.739315
vt 0.625000 0.750000
vt 0.625000 0.750000
vt 0.625000 0.730368
vt 0.588831 0.750000
vt 0.625000 0.750000
vt 0.625000 0.750000
vt 0.625000 0.750000
vt 0.625000 0.739315
vt 0.625000 0.019632
vt 0.616172 0.000000
vt 0.875000 0.730368
vt 0.625000 0.000000
vt 0.875000 0.750000
vt 0.588831 0.000000
vt 0.619454 0.000000
vt 0.875000 0.739315
vt 0.622030 0.000000
vt 0.875000 0.750000
vt 0.625000 0.000000
vt 0.875000 0.750000
s 1
usemtl Default_OBJ
f 55/77/1 57/82/2 20/30/2 15/21/2 4/4/2
f 3/3/3 51/71/3 50/70/4 5/7/3 14/20/3
f 6/9/5 7/10/5 8/11/5 9/12/5
f 50/70/6 55/79/6 4/5/6 5/7/6
f 11/16/2 10/14/2 12/17/2 13/19/2
f 14/20/7 5/7/7 4/6/7 15/22/7
f 1/1/3 2/2/3 49/68/8 51/71/3 3/3/3
f 16/23/2 9/13/2 17/24/2 18/27/2
f 9/12/9 8/11/9 19/29/9 17/25/9
f 20/30/2 16/23/2 18/27/2 15/21/2
f 8/11/3 21/31/3 22/32/3 19/29/3
f 19/29/7 22/32/7 18/28/7 17/26/7
f 7/10/3 23/33/3 21/31/3 8/11/3
f 9/13/2 16/23/2 24/34/2 6/8/2
f 28/38/3 38/53/3 30/40/3 61/89/10 63/92/3
f 25/35/11 12/18/11 10/15/11 2/2/11
f 26/36/3 25/35/3 2/2/3 1/1/3
f 16/23/2 20/30/2 11/16/2 24/34/2
f 20/30/2 57/82/2 56/80/12 10/14/2 11/16/2
f 21/31/3 3/3/3 14/20/3 22/32/3
f 22/32/7 14/20/7 15/22/7 18/28/7
f 23/33/3 1/1/3 3/3/3 21/31/3
f 7/10/13 6/9/13 24/34/13 23/33/13
f 24/34/13 11/16/13 1/1/13 23/33/13
f 26/36/5 1/1/5 11/16/5 13/19/5
f 61/89/14 30/40/14 31/41/14 68/101/14
f 69/102/2 68/100/15 31/42/2 39/54/2 44/63/2
f 32/45/5 33/46/5 34/48/5 35/49/5
f 27/37/3 28/38/3 63/92/3 62/91/16 29/39/3
f 37/52/2 13/19/2 12/17/2 36/51/2
f 38/53/13 39/55/13 31/43/13 30/40/13
f 29/39/11 62/91/11 67/99/11 36/50/11
f 40/56/2 41/57/2 42/59/2 33/47/2
f 33/46/17 42/60/17 43/62/17 34/48/17
f 44/63/2 39/54/2 41/57/2 40/56/2
f 34/48/3 43/62/3 45/64/3 46/65/3
f 43/62/13 42/61/13 41/58/13 45/64/13
f 35/49/3 34/48/3 46/65/3 47/66/3
f 33/47/2 32/44/2 48/67/2 40/56/2
f 25/35/11 29/39/11 36/50/11 12/18/11
f 26/36/3 27/37/3 29/39/3 25/35/3
f 40/56/2 48/67/2 37/52/2 44/63/2
f 44/63/2 37/52/2 36/51/2 67/97/18 69/102/2
f 46/65/3 45/64/3 38/53/3 28/38/3
f 45/64/13 41/58/13 39/55/13 38/53/13
f 47/66/3 46/65/3 28/38/3 27/37/3
f 35/49/7 47/66/7 48/67/7 32/45/7
f 48/67/7 47/66/7 27/37/7 37/52/7
f 26/36/5 13/19/5 37/52/5 27/37/5
f 49/68/8 52/72/19 51/71/3
f 52/72/19 53/73/20 51/71/3
f 53/73/20 54/75/21 51/71/3
f 54/75/21 50/69/4 51/71/3
f 55/78/1 58/83/22 57/82/2
f 58/83/22 59/85/23 57/82/2
f 59/85/23 60/87/24 57/82/2
f 60/87/24 56/80/12 57/82/2
f 61/89/10 64/93/25 63/92/3
f 64/93/25 65/94/26 63/92/3
f 65/94/26 66/95/27 63/92/3
f 66/95/27 62/90/16 63/92/3
f 67/98/18 70/103/28 69/102/2
f 70/103/28 71/105/29 69/102/2
f 71/105/29 72/107/30 69/102/2
f 72/107/30 68/100/15 69/102/2
f 49/68/8 56/81/12 60/88/24 52/72/19
f 52/72/19 60/88/24 59/86/23 53/74/20
f 53/74/20 59/86/23 58/84/22 54/76/21
f 54/76/21 58/84/22 55/79/1 50/70/4
f 61/89/10 68/101/15 72/108/30 64/93/25
f 64/93/25 72/108/30 71/106/29 65/94/26
f 65/94/26 71/106/29 70/104/28 66/96/27
f 66/96/27 70/104/28 67/99/18 62/91/16
f 2/2/11 10/15/11 56/81/11 49/68/11
