# Blender 3.1.0
# www.blender.org
mtllib GoalOne.mtl
o Cube.001
v 11.054944 -0.443984 1.578050
v 11.030723 6.910781 1.578050
v 11.054944 -0.443984 0.491529
v 11.030723 6.910781 0.491529
v -0.081946 6.953784 0.491529
v -0.081946 6.953784 1.578049
v -0.083670 7.477001 0.491529
v 11.029000 7.433998 0.491529
v 11.029000 7.433998 1.578050
v -0.083670 7.477001 1.578049
v 11.604386 6.908561 0.491529
v 11.628609 -0.446203 0.491529
v 11.628609 -0.446203 1.578050
v 11.604386 6.908561 1.578050
v 11.602664 7.431779 0.491529
v 11.602664 7.431779 1.578050
v 11.029000 7.433998 -3.878425
v 11.602664 7.431779 -3.878425
v 11.030723 6.910781 -3.878425
v 11.604386 6.908561 -3.878425
v 11.029862 7.172390 -4.758336
v 11.603524 7.170170 -4.758336
v 11.030723 6.910781 -4.035024
v 11.604386 6.908561 -4.035024
v 11.029862 7.172390 1.578050
v -0.082807 7.215392 1.578049
v 11.029862 7.172390 0.491529
v -0.082807 7.215392 0.491529
v 11.603524 7.170170 1.578050
v 11.603524 7.170170 0.491529
v 11.029862 7.172390 -3.878425
v 11.603524 7.170170 -3.878425
v 11.030723 6.910781 -4.396680
v 11.604386 6.908561 -4.396680
v 11.032797 6.281198 -6.488150
v 11.606461 6.278977 -6.488150
v 11.033658 6.019589 -6.126493
v 11.607323 6.017369 -6.126493
v 11.034350 5.809548 -6.895842
v 11.608013 5.807328 -6.895842
v 11.034350 5.809548 -6.126492
v 11.608013 5.807328 -6.126492
v 11.054872 -0.422025 -6.895842
v 11.628536 -0.424245 -6.895842
v 11.054872 -0.422025 -6.126492
v 11.628536 -0.424245 -6.126492
v -0.173663 7.215745 -3.878425
v -0.174526 7.477352 -3.878425
v -0.172802 6.954136 -4.396680
v -0.173663 7.215745 -4.758336
v -11.170395 -0.357977 1.578049
v -11.194618 6.996787 1.578049
v -11.170395 -0.357977 0.491529
v -11.194618 6.996787 0.491529
v -11.196339 7.520004 0.491529
v -11.196339 7.520004 1.578049
v -11.768282 6.999006 0.491529
v -11.744059 -0.355758 0.491529
v -11.744059 -0.355758 1.578049
v -11.768282 6.999006 1.578049
v -11.770003 7.522224 0.491529
v -11.770003 7.522224 1.578049
v -11.196339 7.520004 -3.878425
v -11.770003 7.522224 -3.878425
v -11.194618 6.996787 -3.878425
v -11.768282 6.999006 -3.878425
v -11.195478 7.258396 -4.758337
v -11.769140 7.260615 -4.758337
v -11.194618 6.996787 -4.035025
v -11.768282 6.999006 -4.035025
v -11.195478 7.258396 1.578049
v -11.195478 7.258396 0.491529
v -11.769140 7.260615 1.578049
v -11.769140 7.260615 0.491529
v -11.195478 7.258396 -3.878425
v -11.769140 7.260615 -3.878425
v -11.194618 6.996787 -4.396680
v -11.768282 6.999006 -4.396680
v -11.192542 6.367203 -6.488150
v -11.766206 6.369423 -6.488150
v -11.191679 6.105596 -6.126494
v -11.765343 6.107815 -6.126494
v -11.190990 5.895554 -6.895843
v -11.764653 5.897774 -6.895843
v -11.190990 5.895554 -6.126493
v -11.764653 5.897774 -6.126493
v -11.170466 -0.336019 -6.895843
v -11.744130 -0.333798 -6.895843
v -11.170466 -0.336019 -6.126493
v -11.744130 -0.333798 -6.126493
v 0.008048 7.215042 -3.878425
v 0.007186 7.476649 -3.878425
v 0.008909 6.953433 -4.396680
v 0.008048 7.215042 -4.758336
vn -0.0021 -0.5433 -0.0000
vn -0.0000 -0.0000 0.5433
vn -0.5433 -0.0018 -0.0000
vn 0.0021 0.5433 -0.0000
vn 0.5433 0.0018 -0.0000
vn -0.0000 -0.0000 -0.5433
vn 0.0020 0.5207 -0.1548
vn 0.0014 0.3553 -0.4110
vn 0.0019 0.4829 -0.2488
vn -0.0019 -0.4829 0.2488
vn -0.0019 -0.4850 0.2448
vn -0.0017 -0.4402 -0.3184
vt 0.375000 0.750000
vt 0.625000 0.750000
vt 0.375000 0.500000
vt 0.625000 0.500000
vt 0.000000 0.000000
vt 0.625000 0.375000
vt 0.000000 0.000000
vt 0.625000 0.875000
vt 0.000000 0.000000
vt 0.750000 0.500000
vt 0.625000 0.375000
vt 0.625000 0.500000
vt 0.625000 0.750000
vt 0.000000 0.000000
vt 0.625000 0.875000
vt 0.750000 0.750000
vt 0.625000 0.500000
vt 0.375000 0.500000
vt 0.375000 0.750000
vt 0.625000 0.750000
vt 0.625000 0.500000
vt 0.625000 0.750000
vt 0.625000 0.500000
vt 0.625000 0.500000
vt 0.625000 0.500000
vt 0.625000 0.500000
vt 0.625000 0.500000
vt 0.625000 0.500000
vt 0.625000 0.500000
vt 0.625000 0.500000
vt 0.625000 0.750000
vt 0.000000 0.000000
vt 0.625000 0.875000
vt 0.625000 0.500000
vt 0.000000 0.000000
vt 0.625000 0.375000
vt 0.625000 0.750000
vt 0.625000 0.500000
vt 0.625000 0.500000
vt 0.625000 0.500000
vt 0.625000 0.500000
vt 0.625000 0.500000
vt 0.625000 0.500000
vt 0.625000 0.500000
vt 0.625000 0.500000
vt 0.625000 0.500000
vt 0.625000 0.500000
vt 0.625000 0.500000
vt 0.625000 0.500000
vt 0.625000 0.500000
vt 0.625000 0.500000
vt 0.625000 0.500000
vt 0.625000 0.500000
vt 0.625000 0.500000
vt 0.625000 0.500000
vt 0.625000 0.500000
vt 0.625000 0.500000
vt 0.625000 0.500000
vt 0.375000 0.750000
vt 0.625000 0.750000
vt 0.375000 0.500000
vt 0.625000 0.500000
vt 0.625000 0.500000
vt 0.625000 0.750000
vt 0.625000 0.500000
vt 0.375000 0.500000
vt 0.375000 0.750000
vt 0.625000 0.750000
vt 0.625000 0.500000
vt 0.625000 0.750000
vt 0.625000 0.500000
vt 0.625000 0.500000
vt 0.625000 0.500000
vt 0.625000 0.500000
vt 0.625000 0.500000
vt 0.625000 0.500000
vt 0.625000 0.500000
vt 0.625000 0.500000
vt 0.625000 0.750000
vt 0.625000 0.500000
vt 0.625000 0.750000
vt 0.625000 0.500000
vt 0.625000 0.500000
vt 0.625000 0.500000
vt 0.625000 0.500000
vt 0.625000 0.500000
vt 0.625000 0.500000
vt 0.625000 0.500000
vt 0.625000 0.500000
vt 0.625000 0.500000
vt 0.625000 0.500000
vt 0.625000 0.500000
vt 0.625000 0.500000
vt 0.625000 0.500000
vt 0.625000 0.500000
vt 0.625000 0.500000
vt 0.625000 0.500000
vt 0.625000 0.500000
vt 0.625000 0.500000
vt 0.625000 0.500000
vt 0.625000 0.500000
vt 0.625000 0.500000
s 0
f 5/5/1 4/4/1 2/2/1 6/7/1
f 25/31/2 2/2/2 14/20/2 29/37/2
f 3/3/3 1/1/3 2/2/3 4/4/3
f 26/33/2 25/31/2 9/13/2 10/15/2
f 8/12/4 7/10/4 10/16/4 9/13/4
f 30/38/5 11/17/5 20/26/5 32/40/5
f 28/35/3 26/32/3 10/14/3 7/9/3
f 27/34/6 28/36/6 7/11/6 8/12/6
f 12/18/5 11/17/5 14/20/5 13/19/5
f 29/37/5 30/38/5 15/21/5 16/22/5
f 3/3/6 4/4/6 11/17/6 12/18/6
f 2/2/2 1/1/2 13/19/2 14/20/2
f 1/1/1 3/3/1 12/18/1 13/19/1
f 8/12/4 9/13/4 16/22/4 15/21/4
f 32/40/5 20/26/5 24/30/5 34/42/5
f 27/34/3 8/12/3 17/23/3 31/39/3
f 11/17/1 4/4/1 19/25/1 20/26/1
f 8/12/4 15/21/4 18/24/4 17/23/4
f 22/28/5 34/42/5 38/46/5 36/44/5
f 17/23/7 18/24/7 22/28/7 21/27/7
f 20/26/1 19/25/1 23/29/1 24/30/1
f 31/39/2 17/23/2 48/56/2 47/55/2
f 19/25/3 31/39/3 33/41/3 23/29/3
f 23/29/1 33/41/1 34/42/1 24/30/1
f 4/4/3 27/34/3 31/39/3 19/25/3
f 18/24/5 32/40/5 34/42/5 22/28/5
f 14/20/5 11/17/5 30/38/5 29/37/5
f 4/4/6 5/6/6 28/36/6 27/34/6
f 5/5/3 6/7/3 26/32/3 28/35/3
f 15/21/5 30/38/5 32/40/5 18/24/5
f 6/8/2 2/2/2 25/31/2 26/33/2
f 9/13/2 25/31/2 29/37/2 16/22/2
f 35/43/8 36/44/8 40/48/8 39/47/8
f 21/27/9 22/28/9 36/44/9 35/43/9
f 33/41/3 21/27/3 35/43/3 37/45/3
f 34/42/10 33/41/10 37/45/10 38/46/10
f 41/49/3 39/47/3 43/51/3 45/53/3
f 38/46/2 37/45/2 41/49/2 42/50/2
f 37/45/3 35/43/3 39/47/3 41/49/3
f 36/44/5 38/46/5 42/50/5 40/48/5
f 45/53/1 43/51/1 44/52/1 46/54/1
f 40/48/5 42/50/5 46/54/5 44/52/5
f 39/47/6 40/48/6 44/52/6 43/51/6
f 42/50/2 41/49/2 45/53/2 46/54/2
f 47/55/3 48/56/3 50/58/3 49/57/3
f 33/41/11 31/39/11 47/55/11 49/57/11
f 21/27/12 33/41/12 49/57/12 50/58/12
f 17/23/7 21/27/7 50/58/7 48/56/7
f 5/5/1 6/7/1 52/60/1 54/62/1
f 71/79/2 73/81/2 60/68/2 52/60/2
f 53/61/5 54/62/5 52/60/5 51/59/5
f 26/33/2 10/15/2 56/64/2 71/79/2
f 55/63/4 56/64/4 10/16/4 7/10/4
f 74/82/3 76/84/3 66/74/3 57/65/3
f 72/80/6 55/63/6 7/11/6 28/36/6
f 58/66/3 59/67/3 60/68/3 57/65/3
f 73/81/3 62/70/3 61/69/3 74/82/3
f 53/61/6 58/66/6 57/65/6 54/62/6
f 52/60/2 60/68/2 59/67/2 51/59/2
f 51/59/1 59/67/1 58/66/1 53/61/1
f 55/63/4 61/69/4 62/70/4 56/64/4
f 76/84/3 78/86/3 70/78/3 66/74/3
f 72/80/5 75/83/5 63/71/5 55/63/5
f 57/65/1 66/74/1 65/73/1 54/62/1
f 55/63/4 63/71/4 64/72/4 61/69/4
f 68/76/3 80/88/3 82/90/3 78/86/3
f 63/71/7 67/75/7 68/76/7 64/72/7
f 66/74/1 70/78/1 69/77/1 65/73/1
f 75/83/2 91/99/2 92/100/2 63/71/2
f 65/73/5 69/77/5 77/85/5 75/83/5
f 69/77/1 70/78/1 78/86/1 77/85/1
f 54/62/5 65/73/5 75/83/5 72/80/5
f 64/72/3 68/76/3 78/86/3 76/84/3
f 60/68/3 73/81/3 74/82/3 57/65/3
f 54/62/6 72/80/6 28/36/6 5/6/6
f 61/69/3 64/72/3 76/84/3 74/82/3
f 6/8/2 26/33/2 71/79/2 52/60/2
f 56/64/2 62/70/2 73/81/2 71/79/2
f 79/87/8 83/91/8 84/92/8 80/88/8
f 67/75/9 79/87/9 80/88/9 68/76/9
f 77/85/5 81/89/5 79/87/5 67/75/5
f 78/86/10 82/90/10 81/89/10 77/85/10
f 85/93/5 89/97/5 87/95/5 83/91/5
f 82/90/2 86/94/2 85/93/2 81/89/2
f 81/89/5 85/93/5 83/91/5 79/87/5
f 80/88/3 84/92/3 86/94/3 82/90/3
f 89/97/1 90/98/1 88/96/1 87/95/1
f 84/92/3 88/96/3 90/98/3 86/94/3
f 83/91/6 87/95/6 88/96/6 84/92/6
f 86/94/2 90/98/2 89/97/2 85/93/2
f 91/99/5 93/101/5 94/102/5 92/100/5
f 77/85/11 93/101/11 91/99/11 75/83/11
f 67/75/12 94/102/12 93/101/12 77/85/12
f 63/71/7 92/100/7 94/102/7 67/75/7
