# Blender 3.1.0
# www.blender.org
mtllib TrackOneFinishLine.mtl
o Cube.002
v -10.557501 9.781994 -29.445822
v -10.557501 11.954785 -29.445822
v -10.557501 9.781994 -31.618612
v -10.557501 11.954785 -31.618612
v 10.557501 9.781994 -29.445822
v 10.557501 11.954785 -29.445822
v 10.557501 9.781994 -31.618612
v 10.557501 11.954785 -31.618612
v 8.831404 9.781994 -31.618612
v -8.494247 9.781994 -31.618612
v -8.494247 11.954785 -31.618612
v 8.831404 11.954785 -31.618612
v -8.494247 9.781994 -29.445822
v 8.831404 9.781994 -29.445822
v 8.831404 11.954785 -29.445822
v -8.494247 11.954785 -29.445822
v -10.557501 -1.378031 -31.618612
v -10.557501 -1.378031 -29.445822
v -8.494247 -1.378031 -31.618612
v 10.557501 -1.378031 -29.445822
v 10.557501 -1.378031 -31.618612
v 8.831404 -1.378031 -29.445822
v 8.831404 -1.378031 -31.618612
v -8.494247 -1.378031 -29.445822
vn -1.0000 -0.0000 -0.0000
vn -0.0000 -0.0000 -1.0000
vn 1.0000 -0.0000 -0.0000
vn -0.0000 -0.0000 1.0000
vn -0.0000 1.0000 -0.0000
vn -0.0000 -1.0000 -0.0000
vt 0.375000 0.000000
vt 0.375000 1.000000
vt 0.625000 0.000000
vt 0.625000 1.000000
vt 0.875000 0.750000
vt 0.375000 0.250000
vt 0.875000 0.500000
vt 0.625000 0.250000
vt 0.375000 0.750000
vt 0.625000 0.750000
vt 0.375000 0.500000
vt 0.625000 0.500000
vt 0.354563 0.500000
vt 0.375000 0.479563
vt 0.271230 0.500000
vt 0.375000 0.396230
vt 0.728770 0.500000
vt 0.625000 0.396230
vt 0.645437 0.500000
vt 0.625000 0.479563
vt 0.271230 0.750000
vt 0.375000 0.853770
vt 0.354563 0.750000
vt 0.375000 0.770437
vt 0.645437 0.750000
vt 0.625000 0.770437
vt 0.728770 0.750000
vt 0.625000 0.853770
vt 0.125000 0.500000
vt 0.375000 0.250000
vt 0.125000 0.750000
vt 0.375000 0.000000
vt 0.375000 1.000000
vt 0.375000 0.396230
vt 0.271230 0.500000
vt 0.375000 0.750000
vt 0.375000 0.500000
vt 0.354563 0.750000
vt 0.375000 0.770437
vt 0.354563 0.500000
vt 0.375000 0.479563
vt 0.271230 0.750000
vt 0.375000 0.853770
s 0
f 1/1/1 2/3/1 4/8/1 3/6/1
f 9/14/2 12/20/2 8/12/2 7/11/2
f 7/11/3 8/12/3 6/10/3 5/9/3
f 13/22/4 16/28/4 2/4/4 1/2/4
f 10/15/3 13/21/3 24/42/3 19/35/3
f 11/17/5 4/7/5 2/5/5 16/27/5
f 8/12/5 12/19/5 15/25/5 6/10/5
f 12/19/5 11/17/5 16/27/5 15/25/5
f 3/6/2 10/16/2 19/34/2 17/30/2
f 10/15/6 9/13/6 14/23/6 13/21/6
f 5/9/4 6/10/4 15/26/4 14/24/4
f 14/24/4 15/26/4 16/28/4 13/22/4
f 3/6/2 4/8/2 11/18/2 10/16/2
f 10/16/2 11/18/2 12/20/2 9/14/2
f 23/40/6 21/37/6 20/36/6 22/38/6
f 17/29/6 19/35/6 24/42/6 18/31/6
f 1/1/1 3/6/1 17/30/1 18/32/1
f 7/11/3 5/9/3 20/36/3 21/37/3
f 13/22/4 1/2/4 18/33/4 24/43/4
f 14/23/1 9/13/1 23/40/1 22/38/1
f 9/14/2 7/11/2 21/37/2 23/41/2
f 5/9/4 14/24/4 22/39/4 20/36/4
